<?xml version="1.0" encoding="UTF-8" standalone="no"?>
<svg
   version="1.1"
   id="Layer_1"
   x="0px"
   y="0px"
   width="100%"
   viewBox="0 0 100 100"
   enable-background="new 0 0 100 100"
   xml:space="preserve"
   sodipodi:docname="visjs.svg"
   inkscape:version="1.2.2 (b0a84865, 2022-12-01)"
   xmlns:inkscape="http://www.inkscape.org/namespaces/inkscape"
   xmlns:sodipodi="http://sodipodi.sourceforge.net/DTD/sodipodi-0.dtd"
   xmlns="http://www.w3.org/2000/svg"
   xmlns:svg="http://www.w3.org/2000/svg"><defs
   id="defs23" /><sodipodi:namedview
   id="namedview21"
   pagecolor="#ffffff"
   bordercolor="#000000"
   borderopacity="0.25"
   inkscape:showpageshadow="2"
   inkscape:pageopacity="0.0"
   inkscape:pagecheckerboard="0"
   inkscape:deskcolor="#d1d1d1"
   showgrid="false"
   inkscape:zoom="8.77"
   inkscape:cx="50"
   inkscape:cy="50.114025"
   inkscape:window-width="1463"
   inkscape:window-height="1027"
   inkscape:window-x="0"
   inkscape:window-y="25"
   inkscape:window-maximized="0"
   inkscape:current-layer="Layer_1" />

<path
   fill="#FDCE00"
   opacity="1.000000"
   stroke="none"
   d=" M57.099766,12.177155   C63.552708,10.195481 69.956200,8.026236 76.478264,6.306727   C80.046234,5.366052 82.691055,5.472987 84.458427,10.463143   C89.022514,23.349764 92.531212,36.342865 92.960808,50.023537   C93.222069,58.343601 93.008453,66.678574 92.683014,75.662109   C87.272995,76.882065 82.196114,77.836998 77.101814,77.941399   C58.687752,78.318741 40.354362,77.741119 22.779118,70.618042   C20.853083,69.747643 18.983442,69.250854 17.176977,68.738266   C17.240152,68.722466 17.246014,68.592354 17.235573,68.243149   C13.484236,65.099541 9.795401,62.231033 5.976593,59.547489   C4.466642,58.486416 2.667479,57.836906 1.000000,57.000000   C1.000000,55.933331 1.000000,54.866661 1.000000,53.399994   C1.829159,52.653591 2.843445,52.505421 3.459140,51.930435   C10.425266,45.424980 17.311018,38.833523 24.266554,32.316605   C25.829897,30.851845 27.579876,29.586281 29.782850,28.333719   C29.879066,30.153028 29.591578,31.926186 28.970198,33.573383   C20.754246,55.352840 39.935173,78.597900 63.164581,74.178757   C76.440178,71.653221 89.479774,59.933392 88.136658,41.344460   C87.177216,28.065622 75.641098,15.879033 61.244541,14.002352   C59.808052,13.815096 58.478790,12.805236 57.099766,12.177155  z"
   id="path4" />

<path
   fill="#129718"
   opacity="1.000000"
   stroke="none"
   d=" M101.000000,87.550018   C100.838196,87.961166 100.566376,87.843811 100.530128,87.894600   C92.927925,98.545250 81.966415,93.250778 72.378410,93.451576   C65.718063,93.591057 58.868557,92.477791 52.373718,90.847778   C43.473015,88.613976 34.644787,85.817085 26.132004,82.398628   C19.314127,79.660774 12.940000,75.763916 6.531272,72.097656   C4.850685,71.136230 3.773739,69.119629 2.419576,67.587616   C2.748206,67.086906 3.076835,66.586205 3.405464,66.085503   C7.749163,67.007179 12.092862,67.928856 16.841288,68.721443   C17.246014,68.592354 17.240152,68.722466 17.274366,69.091568   C19.150890,69.971001 20.993200,70.481331 22.835510,70.991661   C40.354362,77.741119 58.687752,78.318741 77.101814,77.941399   C82.196114,77.836998 87.272995,76.882065 92.701492,76.105988   C96.010506,75.695892 98.801010,75.887001 100.614075,79.058548   C101.000000,81.700012 101.000000,84.400032 101.000000,87.550018  z"
   id="path8" />
<path
   fill="#FF9900"
   opacity="1.000000"
   stroke="none"
   d=" M56.691002,12.104374   C58.478790,12.805236 59.808052,13.815096 61.244541,14.002352   C75.641098,15.879033 87.177216,28.065622 88.136658,41.344460   C89.479774,59.933392 76.440178,71.653221 63.164581,74.178757   C39.935173,78.597900 20.754246,55.352840 28.970198,33.573383   C29.591578,31.926186 29.879066,30.153028 30.106121,28.195446   C35.957401,18.119495 45.267586,13.662811 56.691002,12.104374  M69.714310,37.448265   C68.450974,37.034225 67.214050,36.489944 65.919968,36.227562   C58.303055,34.683197 50.673698,38.276291 46.935089,45.099392   C43.414814,51.524017 44.445755,59.779945 49.420715,65.004692   C55.238331,71.114403 62.432800,72.546349 69.852371,69.084373   C76.016251,66.208298 79.222580,61.118591 79.843643,54.602043   C80.568336,46.998150 76.752220,41.599445 69.714310,37.448265  z"
   id="path10" />

<path
   fill="#DE4117"
   opacity="1.000000"
   stroke="none"
   d=" M70.062637,37.615814   C76.752220,41.599445 80.568336,46.998150 79.843643,54.602043   C79.222580,61.118591 76.016251,66.208298 69.852371,69.084373   C62.432800,72.546349 55.238331,71.114403 49.420715,65.004692   C44.445755,59.779945 43.414814,51.524017 46.935089,45.099392   C50.673698,38.276291 58.303055,34.683197 65.919968,36.227562   C67.214050,36.489944 68.450974,37.034225 70.062637,37.615814  M67.764709,67.009979   C69.522499,65.055382 71.280289,63.100792 73.678192,60.819565   C73.807159,58.724556 74.430672,56.513992 73.973175,54.556011   C72.551025,48.469379 65.819275,45.070335 59.805008,47.079311   C53.672737,49.127708 50.600651,56.231678 53.281502,62.164433   C55.843262,67.833641 61.766468,69.980171 67.764709,67.009979  z"
   id="path14" />
<path
   fill="#FBF5F4"
   opacity="1.000000"
   stroke="none"
   d=" M67.074051,67.162773   C61.766468,69.980171 55.843262,67.833641 53.281502,62.164433   C50.600651,56.231678 53.672737,49.127708 59.805008,47.079311   C65.819275,45.070335 72.551025,48.469379 73.973175,54.556011   C74.430672,56.513992 73.807159,58.724556 73.046661,60.798950   C70.546211,59.007175 68.922874,56.495113 66.709999,55.761604   C65.512688,55.364727 62.363052,57.698372 61.827961,59.358929   C61.301575,60.992447 62.716778,63.477402 63.774361,65.302254   C64.319954,66.243675 65.939667,66.562584 67.074051,67.162773  z"
   id="path16" />
<path
   fill="#575757"
   opacity="1.000000"
   stroke="none"
   d=" M67.419380,67.086380   C65.939667,66.562584 64.319954,66.243675 63.774361,65.302254   C62.716778,63.477402 61.301575,60.992447 61.827961,59.358929   C62.363052,57.698372 65.512688,55.364727 66.709999,55.761604   C68.922874,56.495113 70.546211,59.007175 72.726608,60.962273   C71.280289,63.100792 69.522499,65.055382 67.419380,67.086380  z"
   id="path18" />
</svg>
