<svg enable-background="new 0 0 100 100" height="100" viewBox="0 0 100 100" width="100"
    xmlns="http://www.w3.org/2000/svg">
    <path
        d="m73.334 39.996v-6.66c0-7.36-5.971-13.336-13.334-13.336v6.67c3.68 0 6.668 2.985 6.668 6.666v6.66c0 4.006 1.803 7.56 4.6 10.004-2.797 2.443-4.6 5.992-4.6 10v6.666c0 3.682-2.988 6.667-6.67 6.667v6.667c7.357 0 13.336-5.967 13.336-13.334v-6.666c0-3.682 2.986-6.667 6.666-6.667v-6.67c-3.686 0-6.666-2.985-6.666-6.667z"
        fill="#00b8d4" />
    <path
        d="m33.338 40v-6.667c0-3.683 2.988-6.667 6.67-6.667v-6.666c-7.363 0-13.338 5.967-13.338 13.333l-.002 6.667c0 3.682-2.987 6.666-6.668 6.666v6.667l.003.003c3.683 0 6.667 2.984 6.667 6.667v6.66c0 7.36 5.967 13.337 13.334 13.337v-6.67c-3.684 0-6.666-2.984-6.666-6.667v-6.66c0-4.007-1.805-7.56-4.602-10.003 2.797-2.444 4.602-5.995 4.602-10z"
        fill="#03bf00" />
</svg>